#!OML:ASF E:\Steps\Project 1\Capture day 1\Session 2\Subject.ASF
:FULLY-SPECIFIED
:DEGREES
450
root -5.49385 16.0174 -4.53697 -158.127 3.82968 -183.082
lowerback -28.6234 -4.75663 -2.35681
upperback 0.416875 -5.56176 2.56452
thorax 16.2088 -2.59056 1.89212
lowerneck -1.10118 0.655008 9.05397
upperneck 26.991 5.49638 -10.2699
head 9.04031 3.55858 -4.53682
rclavicle 7.25564e-015 -7.15625e-014
rhumerus -40.9726 -16.8418 -74.6193
rradius 38.8024
rwrist -7.21923
rhand 21.5801 -14.18
rfingers 7.12502
rthumb 46.0041 -37.2728
lclavicle 7.25564e-015 -7.15625e-014
lhumerus -30.233 -3.31922 87.3193
lradius 24.841
lwrist -4.49312
lhand -20.0194 -11.927
lfingers 7.12502
lthumb 6.32104 17.9586
rfemur -32.9917 3.58894 20.3287
rtibia 11.6111
rfoot -8.55011 -5.49268
rtoes -31.0243
lfemur -33.5548 3.94296 -22.4734
ltibia 67.6972
lfoot -1.62003 -1.59178
ltoes -32.3937
451
root -5.47694 16.0257 -4.6108 -158.086 4.63869 -183.212
lowerback -28.6111 -4.66887 -2.46555
upperback 0.417793 -5.40143 2.49587
thorax 16.1946 -2.52818 1.94241
lowerneck -1.23952 0.649511 9.07471
upperneck 27.1303 5.49269 -10.2989
head 9.11629 3.55084 -4.55294
rclavicle -7.44449e-014 1.82882e-014
rhumerus -40.6554 -16.5191 -75.0722
rradius 39.4283
rwrist -7.4161
rhand 21.5493 -14.4877
rfingers 7.12502
rthumb 45.9756 -37.5924
lclavicle -7.44449e-014 1.82882e-014
lhumerus -30.2565 -3.28225 87.1614
lradius 24.8474
lwrist -4.13625
lhand -19.9536 -11.2941
lfingers 7.12502
lthumb 6.38457 18.5897
rfemur -32.8858 4.0668 20.1466
rtibia 11.674
rfoot -8.61647 -5.25331
rtoes -30.7362
lfemur -34.2733 3.71748 -22.5502
ltibia 67.679
lfoot -2.06515 -1.57715
ltoes -35.6709
452
root -5.46072 16.035 -4.68006 -158.08 5.38849 -183.273
lowerback -28.521 -4.61157 -2.50292
upperback 0.437433 -5.31412 2.44086
thorax 16.1655 -2.49512 1.9419
lowerneck -1.32133 0.664267 9.08759
upperneck 27.2417 5.52342 -10.3373
head 9.17607 3.55867 -4.56833
rclavicle 1.33186e-014 -8.74653e-015
rhumerus -40.2693 -16.025 -75.6689
rradius 40.0988
rwrist -7.69891
rhand 21.2737 -14.7916
rfingers 7.12502
rthumb 45.7197 -38.0019
lclavicle 1.33186e-014 -8.74653e-015
lhumerus -30.319 -3.01861 86.8797
lradius 24.8963
lwrist -3.97848
lhand -19.8259 -10.6467
lfingers 7.12502
lthumb 6.50793 19.2333
rfemur -32.6036 4.34288 20.117
rtibia 11.4636
rfoot -8.48159 -4.74216
rtoes -31.2184
lfemur -34.9973 3.36985 -22.4546
ltibia 67.6707
lfoot -2.66561 -1.52806
ltoes -36.6296
453
root -5.44454 16.0458 -4.74806 -158.089 6.13486 -183.213
lowerback -28.4238 -4.53157 -2.42572
upperback 0.469543 -5.23914 2.40057
thorax 16.1402 -2.45943 1.89014
lowerneck -1.44126 0.657687 9.07781
upperneck 27.4027 5.51917 -10.3363
head 9.25542 3.551 -4.56918
rclavicle -1.0635e-014 -3.81667e-014
rhumerus -39.9918 -15.4056 -76.2992
rradius 40.9631
rwrist -7.9311
rhand 21.1252 -15.1602
rfingers 7.12502
rthumb 45.5818 -38.4269
lclavicle -1.0635e-014 -3.81667e-014
lhumerus -30.2939 -2.77582 86.564
lradius 24.8593
lwrist -3.65275
lhand -19.8809 -10.5514
lfingers 7.12502
lthumb 6.45477 19.3303
rfemur -32.3651 4.54275 20.273
rtibia 11.4058
rfoot -8.45663 -4.22022
rtoes -32.0057
lfemur -35.6368 3.10198 -22.2052
ltibia 67.5297
lfoot -3.56909 -1.36055
ltoes -38.6194
454
root -5.42958 16.0559 -4.81505 -158.054 6.93211 -183.16
lowerback -28.3498 -4.39087 -2.33635
upperback 0.459912 -5.0774 2.34239
thorax 16.0677 -2.38109 1.84814
lowerneck -1.66594 0.585433 9.06867
upperneck 27.6551 5.40854 -10.279
head 9.3739 3.49791 -4.56003
rclavicle -1.31198e-014 5.24792e-014
rhumerus -39.8474 -14.9337 -76.773
rradius 41.7808
rwrist -8.20076
rhand 21.1487 -15.5321
rfingers 7.12502
rthumb 45.6036 -38.7899
lclavicle -1.31198e-014 5.24792e-014
lhumerus -30.295 -2.677 86.3326
lradius 24.7444
lwrist -3.17471
lhand -19.8597 -10.7648
lfingers 7.12502
lthumb 6.47523 19.1163
rfemur -32.3053 4.98395 20.3271
rtibia 11.6099
rfoot -8.63082 -3.99887
rtoes -31.6975
lfemur -36.2549 2.80519 -21.9448
ltibia 67.1553
lfoot -4.44565 -1.01762
ltoes -40.9849
455
root -5.41746 16.0639 -4.88387 -158.089 7.743 -183.268
lowerback -28.2682 -4.28608 -2.38126
upperback 0.483442 -4.91856 2.25066
thorax 16.0394 -2.31548 1.83972
lowerneck -1.86666 0.526588 9.06437
upperneck 27.8942 5.32536 -10.2457
head 9.48748 3.45726 -4.55821
rclavicle 1.88845e-015 2.14687e-014
rhumerus -39.5563 -14.4971 -77.2432
rradius 42.3785
rwrist -8.62047
rhand 21.2657 -15.8138
rfingers 7.12502
rthumb 45.7123 -39.0272
lclavicle 1.88845e-015 2.14687e-014
lhumerus -30.2846 -2.5027 86.1078
lradius 24.6276
lwrist -2.72428
lhand -19.2835 -10.1812
lfingers 7.12502
lthumb 7.03151 19.682
rfemur -32.07 5.31439 20.2097
rtibia 11.6055
rfoot -8.87301 -3.45907
rtoes -29.4799
lfemur -36.7247 2.31528 -21.7952
ltibia 66.5855
lfoot -5.17081 -0.806527
ltoes -42.5853
456
root -5.40622 16.0717 -4.95547 -158.171 8.52586 -183.455
lowerback -28.1724 -4.24386 -2.51484
upperback 0.531789 -4.82031 2.17677
thorax 16.0471 -2.2859 1.87377
lowerneck -2.07389 0.520798 9.09537
upperneck 28.0759 5.31644 -10.2809
head 9.59319 3.44439 -4.58021
rclavicle -2.13694e-014 2.3059e-014
rhumerus -39.153 -14.3348 -77.5151
rradius 42.6148
rwrist -8.56768
rhand 21.2633 -15.8845
rfingers 7.12502
rthumb 45.7101 -39.0988
lclavicle -2.13694e-014 2.3059e-014
lhumerus -30.1738 -2.28725 85.8892
lradius 24.4635
lwrist -2.59425
lhand -19.5939 -9.93666
lfingers 7.12502
lthumb 6.7319 19.9363
rfemur -31.7498 5.65608 19.9879
rtibia 11.5268
rfoot -9.0771 -3.03344
rtoes -26.2476
lfemur -37.0525 1.76571 -21.7053
ltibia 65.8021
lfoot -5.87672 -0.477856
ltoes -44.4431
457
root -5.39582 16.0799 -5.02305 -158.207 9.22483 -183.578
lowerback -28.0276 -4.20808 -2.59981
upperback 0.50826 -4.74684 2.14951
thorax 15.9483 -2.26185 1.92727
lowerneck -2.27421 0.50514 9.16292
upperneck 28.2473 5.29467 -10.3418
head 9.69405 3.42766 -4.61937
rclavicle -1.0635e-014 -1.35174e-014
rhumerus -38.9921 -13.9838 -77.8111
rradius 43.2046
rwrist -9.1075
rhand 21.4968 -16.3785
rfingers 7.12502
rthumb 45.9268 -39.5034
lclavicle -1.0635e-014 -1.35174e-014
lhumerus -30.1087 -1.97671 85.6844
lradius 24.2202
lwrist -2.92559
lhand -22.0048 -11.7252
lfingers 7.12502
lthumb 4.40414 18.209
rfemur -31.6205 6.19244 19.7728
rtibia 11.7198
rfoot -9.26386 -3.19901
rtoes -23.8578
lfemur -37.4249 1.10087 -21.4776
ltibia 64.8276
lfoot -6.39534 0.275499
ltoes -43.0481
458
root -5.38478 16.0871 -5.08582 -158.181 9.87374 -183.704
lowerback -27.9624 -4.23576 -2.72419
upperback 0.459086 -4.74143 2.14725
thorax 15.8679 -2.26871 1.9991
lowerneck -2.41464 0.484595 9.20378
upperneck 28.4292 5.28261 -10.4014
head 9.78802 3.4173 -4.65322
rclavicle 2.69353e-014 1.66979e-014
rhumerus -39.0238 -13.3182 -78.2045
rradius 44.0212
rwrist -9.9369
rhand 21.5807 -16.9732
rfingers 7.12502
rthumb 46.0047 -40.0658
lclavicle 2.69353e-014 1.66979e-014
lhumerus -30.163 -1.2989 85.3716
lradius 24.0959
lwrist -3.45759
lhand -20.5166 -9.93048
lfingers 7.12502
lthumb 5.84104 19.969
rfemur -31.4744 6.55324 19.6024
rtibia 11.6951
rfoot -9.27004 -3.17928
rtoes -23.1831
lfemur -37.9161 0.336144 -21.166
ltibia 63.8877
lfoot -6.70986 1.01083
ltoes -41.7317
459
root -5.37438 16.0954 -5.14632 -158.177 10.5692 -183.909
lowerback -28.0081 -4.28476 -2.84721
upperback 0.509885 -4.75685 2.0505
thorax 15.9505 -2.28427 1.94958
lowerneck -2.53875 0.473119 9.21615
upperneck 28.6159 5.27156 -10.4043
head 9.87955 3.40831 -4.66192
rclavicle -8.65707e-014 4.13472e-014
rhumerus -38.8737 -12.7677 -78.6906
rradius 44.7266
rwrist -10.4105
rhand 21.7251 -17.5098
rfingers 7.12502
rthumb 46.1386 -40.5464
lclavicle -8.65707e-014 4.13472e-014
lhumerus -30.208 -0.68636 84.9412
lradius 24.101
lwrist -3.79902
lhand -19.0564 -8.62365
lfingers 7.12502
lthumb 7.25068 21.2321
rfemur -31.1642 6.67173 19.4027
rtibia 11.3232
rfoot -9.04312 -2.76897
rtoes -23.8982
lfemur -38.3241 -0.420143 -20.9317
ltibia 62.9471
lfoot -7.015 1.4856
ltoes -42.6926
460
root -5.36601 16.1061 -5.21022 -158.277 11.3377 -184.054
lowerback -28.0102 -4.22533 -2.80169
upperback 0.64631 -4.68286 1.87099
thorax 16.0854 -2.24882 1.75303
lowerneck -2.69486 0.440861 9.28372
upperneck 28.8192 5.20771 -10.3669
head 9.97788 3.38223 -4.67129
rclavicle -1.88845e-015 -4.77083e-015
rhumerus -38.5191 -12.5016 -79.1512
rradius 45.1731
rwrist -10.7298
rhand 22.1679 -17.9875
rfingers 7.12502
rthumb 46.549 -40.8499
lclavicle -1.88845e-015 -4.77083e-015
lhumerus -30.064 -0.686881 84.5722
lradius 23.8862
lwrist -3.84848
lhand -20.352 -10.7004
lfingers 7.12502
lthumb 6.00003 19.1946
rfemur -30.8089 6.88491 19.2461
rtibia 11.1219
rfoot -8.98752 -2.3453
rtoes -23.0076
lfemur -38.4142 -1.18339 -20.6161
ltibia 61.634
lfoot -7.73942 2.05153
ltoes -42.2711
461
root -5.35861 16.1163 -5.27813 -158.384 12.1361 -184.128
lowerback -27.9231 -4.15331 -2.77544
upperback 0.686895 -4.597 1.8054
thorax 16.0768 -2.2109 1.7041
lowerneck -2.80986 0.404389 9.33258
upperneck 29.0165 5.17089 -10.3991
head 10.0703 3.36562 -4.70022
rclavicle -6.06293e-015 -2.38542e-015
rhumerus -38.3132 -12.2844 -79.3008
rradius 45.4213
rwrist -11.0292
rhand 22.737 -18.3674
rfingers 7.12502
rthumb 47.0758 -41.0002
lclavicle -6.06293e-015 -2.38542e-015
lhumerus -29.8326 -0.850065 84.4097
lradius 23.4623
lwrist -3.75088
lhand -21.0929 -11.3492
lfingers 7.12502
lthumb 5.28465 18.5649
rfemur -30.6008 7.38027 19.0727
rtibia 11.2408
rfoot -9.24895 -2.1963
rtoes -19.6641
lfemur -38.4537 -1.97303 -20.1671
ltibia 60.1146
lfoot -8.88154 2.60947
ltoes -37.0062
462
root -5.35165 16.1247 -5.34536 -158.444 12.8848 -184.213
lowerback -27.8173 -4.11383 -2.82668
upperback 0.650408 -4.5337 1.82075
thorax 15.9836 -2.18884 1.78031
lowerneck -2.85961 0.352237 9.2988
upperneck 29.1871 5.14181 -10.466
head 10.14 3.34559 -4.72594
rclavicle -7.95139e-016 -9.54166e-015
rhumerus -38.362 -12.0929 -79.2422
rradius 45.8332
rwrist -11.1665
rhand 23.4931 -18.4509
rfingers 7.12502
rthumb 47.7742 -40.7683
lclavicle -7.95139e-016 -9.54166e-015
lhumerus -29.7349 -0.830504 84.3474
lradius 23.1556
lwrist -3.80968
lhand -21.5439 -11.4233
lfingers 7.12502
lthumb 4.84922 18.5012
rfemur -30.4542 7.93563 18.8795
rtibia 11.3694
rfoot -9.50843 -2.23228
rtoes -17.3877
lfemur -38.5558 -2.82493 -19.6853
ltibia 58.5608
lfoot -9.83306 3.21043
ltoes -33.1567
463
root -5.34401 16.1298 -5.4174 -158.507 13.6096 -184.274
lowerback -27.7377 -4.04471 -2.81796
upperback 0.632912 -4.4442 1.79134
thorax 15.9147 -2.14881 1.78347
lowerneck -3.02604 0.320396 9.41488
upperneck 29.3636 5.10423 -10.5518
head 10.2378 3.32769 -4.78676
rclavicle 9.44227e-015 9.54166e-015
rhumerus -38.5318 -11.7532 -79.3654
rradius 46.4739
rwrist -11.5449
rhand 23.6838 -18.9821
rfingers 7.12502
rthumb 47.95 -41.2182
lclavicle 9.44227e-015 9.54166e-015
lhumerus -29.7866 -0.705117 84.1902
lradius 22.9501
lwrist -4.15364
lhand -21.8377 -11.5883
lfingers 7.12502
lthumb 4.56544 18.3425
rfemur -30.0988 8.23344 18.8189
rtibia 11.1874
rfoot -9.70081 -1.98234
rtoes -17.9116
lfemur -38.4744 -3.67648 -19.1771
ltibia 56.7768
lfoot -10.2855 4.01235
ltoes -37.1242
464
root -5.33674 16.1332 -5.49183 -158.619 14.378 -184.388
lowerback -27.7103 -4.01284 -2.88337
upperback 0.629225 -4.37873 1.76152
thorax 15.8945 -2.12513 1.81392
lowerneck -3.14432 0.292698 9.50099
upperneck 29.5555 5.09442 -10.6498
head 10.3353 3.32254 -4.84491
rclavicle 2.57426e-014 -1.59028e-015
rhumerus -38.6913 -11.3156 -79.5374
rradius 47.0009
rwrist -12.073
rhand 24.0325 -19.5204
rfingers 7.12502
rthumb 48.2714 -41.6056
lclavicle 2.57426e-014 -1.59028e-015
lhumerus -29.8881 -0.40975 83.9978
lradius 22.7824
lwrist -4.47335
lhand -21.9969 -11.8917
lfingers 7.12502
lthumb 4.41178 18.0423
rfemur -29.6931 8.40074 18.7073
rtibia 10.9748
rfoot -9.72204 -1.50475
rtoes -18.0144
lfemur -38.2409 -4.51694 -18.743
ltibia 54.8309
lfoot -10.8439 4.80345
ltoes -40.2374
